<?xml version="1.0" encoding="UTF-8" standalone="no"?>
<svg
   xmlns:dc="http://purl.org/dc/elements/1.1/"
   xmlns:cc="http://creativecommons.org/ns#"
   xmlns:rdf="http://www.w3.org/1999/02/22-rdf-syntax-ns#"
   xmlns:svg="http://www.w3.org/2000/svg"
   xmlns="http://www.w3.org/2000/svg"
   width="81.652214mm"
   height="16.519762mm"
   viewBox="0 0 289.31888 58.53459"
   id="svg32576"
   version="1.1">
  <defs
     id="defs32578" />
  <metadata
     id="metadata32581">
    <rdf:RDF>
      <cc:Work
         rdf:about="">
        <dc:format>image/svg+xml</dc:format>
        <dc:type
           rdf:resource="http://purl.org/dc/dcmitype/StillImage" />
        <dc:title></dc:title>
      </cc:Work>
    </rdf:RDF>
  </metadata>
  <g
     style="fill:#002569;fill-opacity:1"
     id="layer1"
     transform="translate(-231.93381,-633.85767)">
    <path
       d="m 441.19877,676.49396 c -0.33844,0.21071 -6.07891,3.77378 -15.12705,5.78838 -17.78337,3.96534 -17.61736,-5.02852 -17.61736,-5.02852 0.0574,-13.71587 32.50175,-13.44448 32.50175,-13.44448 0.24573,0 0.44698,0.20126 0.44698,0.44696 0,12.23447 -0.001,11.8641 -0.001,11.8641 0,0.15665 -0.0797,0.29375 -0.20127,0.37356 z m -5.01575,-3.12884 c -3.91427,2.1391 -13.6616,5.40843 -18.79228,5.01892 -5.15302,-0.3927 -2.77445,-3.3619 -2.77445,-3.3619 5.50103,-6.55783 21.33047,-6.47163 21.33047,-6.47163 0.24902,0 0.44698,0.20127 0.44698,0.44697 l 0,3.99089 c 0,0.0149 0,0.032 0,0.0446 -0.0149,0.14049 -0.0957,0.26182 -0.21072,0.33205 z m 26.59843,-10.97015 -0.001,14.47574 c 0.013,2.93728 1.95073,5.45952 4.83374,6.03739 0.73114,0.17579 1.46225,0.27459 2.21575,0.30331 0.27456,0 0.47252,0.19796 0.47252,0.44379 l 0,1.92201 c 0,0.24904 -0.19796,0.44697 -0.44379,0.44697 l -25.87369,0 c -2.21893,-0.16297 -4.22395,-1.39202 -5.36376,-3.30764 -10.92544,6.55463 -36.40323,8.39044 -35.36239,-5.41163 1.36326,-18.08349 34.99843,-17.41942 34.99843,-17.41942 l 24.97335,0 c 0.12425,0 0.22348,0.0989 0.22348,0.22351 0,0.0382 -0.009,0.0732 -0.0541,0.14344 -0.42463,0.63216 -0.63852,1.37924 -0.6162,2.1423 z m -25.58954,-7.20913 32.82741,0 c 0.24903,0 0.44698,0.19795 0.44698,0.47571 l 0,3.86318 c -0.009,0.20739 -0.16297,0.37675 -0.36077,0.41505 l -0.2235,0.0606 c -0.7854,0.17243 -1.46863,0.66408 -1.87731,1.3569 -0.20434,0.32246 -0.33204,0.68323 -0.37355,1.06318 -0.048,0.48847 -0.0736,0.8301 -0.0925,1.32178 l 0,11.8609 c 0,0.82691 0.32566,1.6155 0.90991,2.19977 0.58427,0.58427 1.37606,0.91311 2.1998,0.91311 l 4.01642,0 c 0.24903,0 0.44696,0.19795 0.44696,0.44379 l 0,11.20639 c 0,0.24597 -0.19793,0.44699 -0.44696,0.44699 l -29.57405,0 c -1.07913,0 -2.11996,-0.0255 -3.17034,-0.20766 -1.72727,-0.20101 -3.44176,-0.71516 -4.77949,-1.82623 -19.28075,8.10628 -40.41648,1.81985 -38.9191,-11.3756 2.59248,-22.81828 38.97018,-22.21806 38.97018,-22.21806 z m -200.06455,-7.12613 c 6.81003,-2.34982 13.15713,-4.23671 20.15554,-5.95439 10.37312,-2.42966 20.80049,-3.62052 31.45456,-3.5918 11.2894,0.0607 21.33685,1.33135 31.85044,5.44676 2.26043,0.73432 6.1204,2.44242 8.06477,3.8089 1.87413,1.17811 3.05223,2.2317 4.42509,3.96854 1.02806,1.43034 1.45906,3.53431 1.43991,5.22325 -0.25861,2.70424 -1.75599,5.13068 -4.05792,6.57379 -0.15014,0.0736 -0.24266,0.2235 -0.24266,0.38952 0.001,0.16593 0.0989,0.31289 0.24903,0.38313 l 0.25543,0.15961 0.25208,0.16595 c 2.82875,1.56442 5.27117,3.70993 7.19,6.31837 1.11423,1.51653 1.81662,3.28848 2.0465,5.1594 0.086,1.92838 -0.4342,4.31334 -1.58358,5.865 -1.21003,1.33137 -2.56692,2.28917 -4.2463,2.93091 -2.54777,0.99931 -5.43716,1.08871 -8.17332,1.10467 -2.05929,0.0673 -88.9935,0.013 -88.9935,0.013 -0.2457,0 -0.44698,-0.19793 -0.44698,-0.44697 l 0,-3.1959 c 0,-0.22988 0.17578,-0.41825 0.3991,-0.4438 1.28666,-0.20738 2.38493,-0.80135 3.32359,-1.72725 0.85884,-0.85564 1.44311,-1.94754 1.67938,-3.13842 0.22042,-1.34095 0.28415,-3.16078 0.28415,-4.12179 l 0,-12.10994 c -0.0383,-1.30899 -0.41825,-2.59885 -0.94506,-3.7993 -0.41185,-0.72476 -0.94503,-1.3633 -1.58358,-1.89649 -0.83647,-0.63853 -1.82941,-1.14299 -2.82872,-1.46863 -0.19157,-0.0545 -0.32886,-0.22351 -0.32886,-0.42783 l 0,-4.69965 c 0,-0.21712 0.13751,-0.41506 0.36077,-0.4885 z m -5.19135,-3.12244 c 0,-0.19796 0.12766,-0.36718 0.3097,-0.42464 7.30173,-2.82555 14.74391,-5.00936 22.38407,-6.73024 4.32292,-1.11104 8.55964,-1.9667 12.97197,-2.61482 7.01756,-1.0057 13.83718,-1.42394 20.92499,-1.28347 5.62236,-0.0574 11.08827,0.40866 16.62124,1.41756 2.21892,0.38632 4.28779,0.65131 6.47799,1.1909 5.52658,1.31538 11.43946,2.81915 16.57972,5.23603 2.62442,1.23238 5.05087,2.63717 7.19635,4.46978 2.7234,2.32109 3.98132,5.21689 4.77949,8.44471 0.57787,2.98517 -0.48847,6.22896 -2.23488,8.71609 1.18449,1.06957 2.69463,2.08484 3.66522,3.34914 1.56762,1.80069 2.75529,4.00366 3.53112,6.25771 0.99614,2.59567 0.75987,5.52658 -0.35758,8.07436 -1.15256,2.89259 -3.20547,5.31903 -5.865,6.94094 -0.56829,0.31289 -1.07275,0.56829 -1.66978,0.8269 -2.52224,1.04402 -3.57904,1.60913 -7.20275,1.96992 l -0.95782,0.035 -96.70706,0 c -0.24903,0 -0.44699,-0.20129 -0.44699,-0.44699 l 10e-4,-11.95667 c 0,-0.23295 0.17541,-0.42784 0.40548,-0.44699 0,0 5.10513,-0.63536 5.27435,-3.27572 l 0,-11.56398 c -0.0797,-4.5081 -5.23287,-4.28781 -5.23287,-4.28781 -0.24594,0 -0.45016,-0.19489 -0.45016,-0.4406 l 0,-13.45724 z m 53.40759,11.53523 c -0.2457,0 -0.44696,-0.19796 -0.44696,-0.44699 l 0,-7.33363 c 0,-0.24573 0.20126,-0.44698 0.44696,-0.44698 0,0 7.45178,-0.38312 19.35419,1.26111 14.03834,1.93797 18.36444,6.51633 18.36444,6.51633 0.0894,0.0831 0.14996,0.17578 0.13082,0.27456 -0.0186,0.0989 -0.10512,0.1691 -0.20433,0.17541 l -37.6452,0 z m -4.83376,4.83376 c -0.2457,0 -0.44377,-0.20128 -0.44377,-0.44698 l 0,-16.8064 c 0,-0.23627 0.18508,-0.43103 0.41824,-0.44379 3.10968,-0.20739 6.53227,-0.24903 9.64517,-0.086 2.84469,0.0702 5.09557,0.20432 7.92429,0.51401 2.87344,0.24597 5.33821,0.6673 8.17014,1.21642 2.77766,0.58747 4.33888,0.95782 7.08462,1.67938 2.77125,0.7439 5.3382,1.64744 7.95942,2.80319 1.79109,0.78542 3.48005,1.7528 5.06683,2.89579 0.49805,0.40228 0.93863,0.84607 1.33773,1.34732 0.70877,0.78221 1.08552,1.81027 1.0504,2.86705 0.0479,1.58358 -0.82052,3.05224 -2.2317,3.77378 -1.21642,0.47571 -2.50947,0.70877 -3.81848,0.68325 l -42.16289,10e-4 z m -0.44377,3.85359 c 0,-0.2457 0.19794,-0.44378 0.44377,-0.44378 l 27.1827,0.005 c 3.5535,0.11799 6.65362,0.36077 10.17836,0.80137 2.65953,0.27776 5.22008,0.84287 7.7487,1.71767 1.86136,0.7439 3.62053,1.70809 5.2488,2.87983 2.34984,1.52929 3.88554,4.05153 4.16969,6.86113 0.023,1.05678 -0.35759,2.07844 -1.06638,2.85747 -0.86203,0.93864 -2.14229,1.65701 -3.37148,1.97626 -0.66729,0.19796 -1.35372,0.30012 -2.04973,0.30651 l -48.04066,0 c -0.2457,0 -0.44377,-0.19795 -0.44377,-0.44379 l 0,-16.51907 z m 48.75262,11.22875 c -0.11499,0.90355 -1.38244,0.90355 -1.38244,0.90355 l -42.09265,0 c -0.2457,0 -0.44696,-0.20129 -0.44696,-0.44699 l 0,-6.8292 c 0,-0.24573 0.19793,-0.44698 0.44376,-0.44698 l 25.06275,0 c 3.34277,0.0511 6.61529,0.60662 9.8974,1.23239 2.10718,0.44379 4.11858,1.16534 6.02783,2.16465 0.69283,0.32885 1.35371,0.81094 1.83262,1.41117 0.44059,0.41506 0.64173,1.39522 0.65769,2.01141 z m 184.86089,-0.78539 c 0,0.8269 0.32566,1.6155 0.90993,2.19976 0.58426,0.58427 1.37286,0.91311 2.19977,0.91311 l 4.01642,0 c 0.2457,0 0.44699,0.19796 0.44699,0.44379 l 0,11.2064 c 0,0.24597 -0.20102,0.44698 -0.44699,0.44698 l -28.74712,0 c -1.16534,-0.0544 -2.30194,-0.23933 -3.42259,-0.55874 -1.20047,-0.37992 -2.23809,-1.14298 -2.95964,-2.17102 -0.63855,-1.00252 -1.00251,-2.15188 -1.05998,-3.33958 l 0,-26.06205 -0.0255,-0.33844 c -0.12138,-0.9227 -0.83331,-1.68574 -1.77834,-1.85816 -0.26499,-0.0478 -0.45656,-0.27775 -0.45656,-0.54594 l 0,-4.23672 c 0,-0.22987 0.17244,-0.42143 0.39589,-0.44699 0,0 5.12429,-1.08871 10.83604,-5.85542 5.71175,-4.7635 10.97334,-9.76967 22.78316,-10.86797 l 0.0511,-0.001 c 0.24596,0 0.44378,0.19796 0.44378,0.44699 l 0,4.68371 c 0,0.23319 -0.17243,0.42462 -0.3927,0.45017 -1.57402,0.18211 -2.79043,1.51973 -2.79043,3.14481 l -10e-4,32.34851 z m -4.89761,1.2675 c 0.013,2.93728 2.08804,5.45952 4.96784,6.03739 0.73434,0.17579 1.46546,0.27459 2.21893,0.30331 0.27459,0 0.47253,0.19796 0.47253,0.44379 l 0,1.92201 c 0,0.24904 -0.19794,0.44697 -0.44378,0.44697 l -23.51109,0 c -0.82691,0 -1.61553,-0.32565 -2.19977,-0.90991 -0.58427,-0.58427 -0.90994,-1.37287 -0.90994,-2.19977 l 0,-23.85909 c 0.005,-1.51337 -0.42782,-2.98839 -1.24514,-4.25589 -0.0894,-0.14048 -0.11499,-0.30969 -0.0639,-0.46932 0.0478,-0.15627 0.16593,-0.28416 0.31609,-0.34802 0,0 4.65814,-1.89007 9.45998,-6.50991 4.46021,-4.291 9.00982,-6.28326 11.6438,-6.98565 0.0797,-0.023 0.16593,10e-4 0.22018,0.0671 0.0574,0.0673 0.0702,0.15627 0.0382,0.23294 -0.67047,1.58677 -0.99614,3.29167 -0.96421,5.01255 l 0,31.07142 z M 384.10678,650.81822 c 0,0.24597 -0.19794,0.44699 -0.44378,0.44699 l -29.34736,0 c -0.24903,-10e-4 -0.44378,-0.20434 -0.44378,-0.45019 l 0,-10.68599 c 0,-0.24597 0.19794,-0.44697 0.44378,-0.44697 l 29.34736,0 c 0.2457,0 0.44378,0.20126 0.44378,0.44697 l 0,10.68919 z m -25.4746,-6.63126 c 0,-0.24597 0.19795,-0.44379 0.44379,-0.44379 l 19.68942,0 c 0.24571,0 0.44697,0.19796 0.44697,0.44379 l 0,2.57333 c 0,0.24597 -0.20126,0.44379 -0.44697,0.44379 l -19.68942,0 c -0.2457,0 -0.44379,-0.19796 -0.44379,-0.44379 l 0,-2.57333 z m 20.13321,15.69853 c 0.24571,0 0.44697,0.20128 0.44697,0.44699 l 0,16.53823 c 0.013,2.93728 2.08804,5.45952 4.96786,6.03739 0.73432,0.17579 1.46545,0.27459 2.21894,0.30331 0.27456,0 0.47251,0.19796 0.47251,0.44379 l 0,1.92201 c 0,0.24904 -0.19795,0.44697 -0.44699,0.44697 l -24.6828,0 c -0.8269,0 -1.61551,-0.32565 -2.19977,-0.90991 -0.58426,-0.58427 -0.90993,-1.37287 -0.90993,-2.19977 l 0,-20.51953 c 0.023,-0.76307 -0.19489,-1.51015 -0.61939,-2.1423 -0.0448,-0.0702 -0.0545,-0.10512 -0.0545,-0.14364 0,-0.12462 0.099,-0.2235 0.22349,-0.2235 l 20.58338,0 z m 12.91769,30.48078 c 0,0.24597 -0.20128,0.44698 -0.44699,0.44698 l -29.91883,0 c -1.16854,-0.0544 -2.30514,-0.23933 -3.42579,-0.55874 -1.20046,-0.37992 -2.23809,-1.14298 -2.95644,-2.17102 -0.64174,-1.00252 -1.0057,-2.15188 -1.06317,-3.33958 l 0,-21.00162 c -0.023,-0.49167 -0.0446,-0.8333 -0.0925,-1.32177 -0.0416,-0.37994 -0.16928,-0.74071 -0.37354,-1.06318 -0.41186,-0.69282 -1.09192,-1.1845 -1.88051,-1.3569 l -0.22349,-0.0606 c -0.19795,-0.0382 -0.34799,-0.20765 -0.36078,-0.41503 l 0.001,-3.86318 c -0.001,-0.27777 0.19796,-0.47571 0.4438,-0.47571 l 32.27504,0 c 0.25211,10e-4 0.44379,0.20125 0.44379,0.44378 l 0,19.97357 c 0,0.82692 0.32887,1.61551 0.91314,2.19978 0.58424,0.58427 1.37286,0.91311 2.19657,0.91311 l 4.01961,0 c 0.24572,0 0.44698,0.19794 0.44698,0.44379 l 0,11.20639"
       style="fill:#002569;fill-opacity:1;fill-rule:evenodd;stroke:none"
       id="path28430" />
  </g>
</svg>
