<svg xmlns="http://www.w3.org/2000/svg" xmlns:xlink="http://www.w3.org/1999/xlink" version="1.1" x="0px" y="0px" viewBox="0 0 64 80" style="enable-background:new 0 0 64 64;" xml:space="preserve"><path d="M57.008,24.588C57.654,23.511,58,22.278,58,21c0-3.529-2.625-6.457-6.026-6.933C51.991,13.878,52,13.689,52,13.5  c0-3.776-3.277-6.825-7.079-6.473C44.455,4.18,41.977,2,39,2c-3.309,0-6,2.691-6,6v48c0,3.309,2.691,6,6,6  c2.977,0,5.455-2.18,5.921-5.027C48.72,57.328,52,54.276,52,50.5c0-0.189-0.009-0.378-0.026-0.567C55.375,49.457,58,46.529,58,43  c0-1.278-0.346-2.511-0.992-3.588C59.973,38.209,62,35.298,62,32S59.973,25.791,57.008,24.588z M55.152,37.887  c-0.358,0.07-0.651,0.33-0.762,0.677c-0.111,0.348-0.023,0.729,0.229,0.994C55.51,40.493,56,41.716,56,43  c0,2.755-2.24,4.997-5.052,4.997c-0.015,0-0.116-0.006-0.13-0.007c-0.328-0.013-0.625,0.131-0.822,0.384  c-0.197,0.252-0.261,0.583-0.173,0.89C49.94,49.675,50,50.091,50,50.5c0,2.481-2.019,4.5-4.5,4.5c-0.413,0-0.832-0.061-1.246-0.179  c-0.31-0.091-0.644-0.023-0.896,0.176c-0.253,0.2-0.394,0.509-0.379,0.831C42.98,55.859,42.996,55.969,43,56c0,2.206-1.794,4-4,4  s-4-1.794-4-4V36h4v11.184c-1.161,0.414-2,1.514-2,2.816c0,1.654,1.346,3,3,3s3-1.346,3-3c0-1.302-0.839-2.402-2-2.816V36h8v4.184  c-1.161,0.414-2,1.514-2,2.816c0,1.654,1.346,3,3,3s3-1.346,3-3c0-1.302-0.839-2.402-2-2.816V35c0-0.552-0.448-1-1-1H35v-5h12.184  c0.414,1.161,1.514,2,2.816,2c1.654,0,3-1.346,3-3s-1.346-3-3-3c-1.302,0-2.402,0.839-2.816,2H35v-5h9c0.552,0,1-0.448,1-1v-4.184  c1.161-0.414,2-1.514,2-2.816c0-1.654-1.346-3-3-3s-3,1.346-3,3c0,1.302,0.839,2.402,2,2.816V20h-8V8c0-2.206,1.794-4,4-4  s4,1.794,3.999,3.979c-0.004,0.031-0.018,0.161-0.02,0.193c-0.015,0.322,0.126,0.631,0.379,0.831  c0.252,0.199,0.586,0.266,0.896,0.176C44.668,9.061,45.087,9,45.5,9c2.481,0,4.5,2.019,4.5,4.5c0,0.409-0.06,0.825-0.177,1.236  c-0.088,0.307-0.023,0.638,0.173,0.89s0.494,0.39,0.822,0.384c0.012,0,0.17-0.009,0.182-0.01c2.757,0,5,2.243,5,5  c0,1.284-0.49,2.507-1.381,3.442c-0.252,0.265-0.34,0.646-0.229,0.994c0.111,0.348,0.403,0.607,0.762,0.677  C57.961,26.66,60,29.136,60,32C60,34.865,57.961,37.34,55.152,37.887z M41,50c0,0.551-0.449,1-1,1s-1-0.449-1-1s0.449-1,1-1  S41,49.449,41,50z M51,43c0,0.551-0.449,1-1,1s-1-0.449-1-1s0.449-1,1-1S51,42.449,51,43z M49,28c0-0.551,0.449-1,1-1s1,0.449,1,1  s-0.449,1-1,1S49,28.551,49,28z M43,14c0-0.551,0.449-1,1-1s1,0.449,1,1s-0.449,1-1,1S43,14.551,43,14z"/><path d="M6.992,39.412C6.346,40.489,6,41.722,6,43c0,3.529,2.625,6.457,6.026,6.933C12.009,50.122,12,50.311,12,50.5  c0,3.777,3.293,6.816,7.079,6.474C19.545,59.82,22.023,62,25,62c3.309,0,6-2.691,6-6V8c0-3.309-2.691-6-6-6  c-2.977,0-5.455,2.18-5.921,5.027C15.289,6.672,12,9.724,12,13.5c0,0.189,0.009,0.378,0.026,0.567C8.625,14.543,6,17.471,6,21  c0,1.278,0.346,2.511,0.992,3.588C4.027,25.791,2,28.702,2,32S4.027,38.209,6.992,39.412z M21,44c0.551,0,1,0.449,1,1s-0.449,1-1,1  s-1-0.449-1-1S20.449,44,21,44z M22,47.816c1.161-0.414,2-1.514,2-2.816s-0.839-2.402-2-2.816V36h7v14h-7V47.816z M8.848,26.113  c0.359-0.07,0.651-0.33,0.762-0.677c0.111-0.348,0.023-0.729-0.229-0.994C8.49,23.507,8,22.284,8,21c0-2.755,2.24-4.997,5.052-4.997  c0.014,0,0.116,0.006,0.13,0.007c0.31,0.006,0.625-0.132,0.822-0.384c0.197-0.252,0.261-0.583,0.173-0.89  C14.06,14.325,14,13.909,14,13.5c0-2.481,2.019-4.5,4.5-4.5c0.413,0,0.832,0.061,1.246,0.179c0.309,0.088,0.643,0.023,0.896-0.176  c0.253-0.2,0.394-0.509,0.379-0.831C21.02,8.141,21.004,8.031,21,8c0-2.206,1.794-4,4-4s4,1.794,4,4v12h-5v-3.184  c1.161-0.414,2-1.514,2-2.816c0-1.654-1.346-3-3-3s-3,1.346-3,3c0,1.302,0.839,2.402,2,2.816V20h-5.184  c-0.414-1.161-1.514-2-2.816-2c-1.654,0-3,1.346-3,3s1.346,3,3,3c1.302,0,2.402-0.839,2.816-2H23h6v5H15c-0.552,0-1,0.448-1,1v6.184  c-1.161,0.414-2,1.514-2,2.816c0,1.654,1.346,3,3,3s3-1.346,3-3c0-1.302-0.839-2.402-2-2.816V29h13v5h-8c-0.552,0-1,0.448-1,1v7.184  c-1.161,0.414-2,1.514-2,2.816s0.839,2.402,2,2.816V51c0,0.552,0.448,1,1,1h8v4c0,2.206-1.794,4-4,4s-4-1.794-3.999-3.979  c0.004-0.031,0.018-0.161,0.02-0.193c0.015-0.322-0.126-0.631-0.38-0.831c-0.178-0.141-0.397-0.215-0.619-0.215  c-0.093,0-0.186,0.013-0.277,0.039C19.333,54.94,18.914,55,18.5,55c-2.481,0-4.5-2.019-4.5-4.5c0-0.409,0.06-0.825,0.177-1.236  c0.088-0.307,0.023-0.638-0.173-0.89c-0.197-0.252-0.512-0.396-0.822-0.384c-0.012,0-0.17,0.009-0.182,0.01c-2.757,0-5-2.243-5-5  c0-1.284,0.49-2.507,1.381-3.442c0.252-0.265,0.34-0.646,0.229-0.994c-0.111-0.348-0.403-0.607-0.762-0.677  C6.039,37.34,4,34.864,4,32S6.039,26.66,8.848,26.113z M22,14c0-0.551,0.449-1,1-1s1,0.449,1,1s-0.449,1-1,1S22,14.551,22,14z   M15,21c0,0.551-0.449,1-1,1s-1-0.449-1-1s0.449-1,1-1S15,20.449,15,21z M16,37c0,0.551-0.449,1-1,1s-1-0.449-1-1s0.449-1,1-1  S16,36.449,16,37z"/><rect x="47" y="20" width="2" height="2"/><rect x="6" y="31" width="2" height="2"/><rect x="12" y="43" width="2" height="2"/><rect x="55" y="31" width="2" height="2"/><text x="0" y="79" fill="#000000" font-size="5px" font-weight="bold" font-family="'Helvetica Neue', Helvetica, Arial-Unicode, Arial, Sans-serif">Created by Becris</text><text x="0" y="84" fill="#000000" font-size="5px" font-weight="bold" font-family="'Helvetica Neue', Helvetica, Arial-Unicode, Arial, Sans-serif">from the Noun Project</text></svg>